<?xml version="1.0" standalone="no"?>
<svg
  width="600"
  height="600"
  viewBox="0 0 600 600"
  xmlns="http://www.w3.org/2000/svg"
>
  <g transform="translate(300,300)">
    <path d="M45.1,-50.1C61.6,-50.1,80.2,-41.1,73.6,-31.1C66.9,-21.1,34.9,-10.1,37.9,22.1C40.9,54.3,78.9,107.6,78.5,129.3C78,151,39,141,7.1,131.3C-24.9,121.6,-49.8,112.2,-84.3,101.6C-118.9,91,-163.1,79.2,-164,57.7C-164.8,36.3,-122.4,5.2,-99.2,-21.7C-76,-48.6,-72.1,-71.2,-58.8,-72.2C-45.5,-73.2,-22.7,-52.6,-4.2,-46.8C14.3,-41,28.6,-50,45.1,-50.1Z" fill="#9900ef" />
  </g>
</svg>
  